<svg width="36" height="56" viewBox="0 0 36 56" fill="none" xmlns="http://www.w3.org/2000/svg">
<path d="M17.75 31.5853L12.1111 17.079C13.3815 1.02103 17.75 0.253868 17.75 0.253868C17.75 0.253868 22.1185 1.02974 23.3889 17.079L17.75 31.5853Z" fill="#799946" stroke="#7C6A59" stroke-width="0.5" stroke-miterlimit="10"/>
<path d="M25.3887 25.0121C25.3887 25.0121 32.8799 11.8571 26.4952 4.89169C26.4952 4.89169 14.9961 23.8091 18.9958 29.031L25.3887 25.0121Z" fill="#96C456" stroke="#7C6A59" stroke-width="0.5" stroke-miterlimit="10"/>
<path d="M10.1113 25.0121C10.1113 25.0121 2.62014 11.8571 9.00485 4.89169C9.00485 4.89169 20.7252 24.2886 16.7255 29.5105L10.1113 25.0121Z" fill="#96C456" stroke="#7C6A59" stroke-width="0.5" stroke-miterlimit="10"/>
<path d="M17.75 28.4905H25.0281C25.0281 28.4905 35.937 24.4281 35.2158 13.9843C35.2076 13.9843 23.9298 19.2062 17.75 28.4905Z" fill="#AECD61" stroke="#7C6A59" stroke-width="0.5" stroke-miterlimit="10"/>
<path d="M17.75 28.4905H10.4719C10.4719 28.4905 -0.437 24.4281 0.284251 13.9843C0.292447 13.9843 11.5702 19.2062 17.75 28.4905Z" fill="#AECD61" stroke="#7C6A59" stroke-width="0.5" stroke-miterlimit="10"/>
<path d="M17.75 55.2539H27.0279L30.8473 34.2442H17.75H4.66095L8.4803 55.2539H17.75Z" fill="#E09B52" stroke="#7C6B59" stroke-width="0.5" stroke-miterlimit="10" stroke-linejoin="round"/>
<path d="M17.75 34.2442H33.2979V27.4618H17.75H2.20215V34.2442H17.75Z" fill="#E09B52" stroke="#7C6B59" stroke-width="0.5" stroke-miterlimit="10" stroke-linejoin="round"/>
<path d="M4.99695 34.5145H7.95572L12.0947 54.9836H8.68516L4.99695 34.5145Z" fill="#B0733A"/>
<path d="M30.6424 34.497H29.7736L25.9133 54.9662H26.823L30.6424 34.497Z" fill="#F7B980"/>
<path d="M2.49719 27.7146H5.54612L6.77552 33.9914H2.49719V27.7146Z" fill="#B0733A"/>
<path d="M33.0028 27.7146H31.8226L30.6423 33.9914H33.0028V27.7146Z" fill="#F7B980"/>
</svg>
