<svg width="36" height="56" viewBox="0 0 36 56" fill="none" xmlns="http://www.w3.org/2000/svg">
<path d="M18.7921 55.25H28.6081L32.6555 34.2439H18.7921H4.93744L8.97623 55.25H18.7921Z" fill="#E09B52" stroke="#7C6B59" stroke-width="0.5" stroke-miterlimit="10" stroke-linejoin="round"/>
<path d="M18.7922 34.2439H35.25V27.4677H18.7922H2.33429V34.2439H18.7922Z" fill="#E09B52" stroke="#7C6B59" stroke-width="0.5" stroke-miterlimit="10" stroke-linejoin="round"/>
<path d="M5.29205 34.5132H8.42277L12.7988 54.9807H9.19247L5.29205 34.5132Z" fill="#B0733A"/>
<path d="M32.4393 34.5045H31.5226L27.4319 54.9633H28.3919L32.4393 34.5045Z" fill="#F7B980"/>
<path d="M2.64563 27.7196H5.87148L7.16873 33.9919H2.64563V27.7196Z" fill="#B0733A"/>
<path d="M34.9387 27.7196H33.6847L32.4393 33.9919H34.9387V27.7196Z" fill="#F7B980"/>
<path d="M16.0074 27.4764H5.30075C5.30075 27.4764 1.97977 18.2851 4.22835 13.2812C4.22835 13.2812 6.16559 7.16521 12.3146 7.68646C12.3146 7.68646 14.9177 7.63433 17.5036 10.2666L16.0074 27.4764Z" fill="#799946" stroke="#7C6A59" stroke-width="0.5" stroke-miterlimit="10"/>
<path d="M21.577 27.4764H32.2837C32.2837 27.4764 35.9246 18.4415 33.3561 13.2811C33.3561 13.2811 31.1421 7.35634 25.2698 7.68646C25.2698 7.68646 22.7791 7.63433 20.0808 10.2666L21.577 27.4764Z" fill="#AECD61" stroke="#7C6A59" stroke-width="0.5" stroke-miterlimit="10"/>
<path d="M18.7922 27.4764H24.3617C24.3617 27.4764 27.3627 15.0013 22.4331 8.98088C22.4331 8.98088 20.937 6.8264 18.7922 6.8264C16.6474 6.8264 15.1512 8.98088 15.1512 8.98088C10.2303 15.0013 13.2226 27.4764 13.2226 27.4764H18.7922Z" fill="#97C456" stroke="#7C6A59" stroke-width="0.5" stroke-miterlimit="10" stroke-linejoin="round"/>
<path d="M26.5757 15.2271L27.6222 17.0428L28.4784 15.2271" stroke="#7C6B59" stroke-width="0.5" stroke-miterlimit="10" stroke-linejoin="round"/>
<path d="M32.1107 17.3034L31.5312 19.3537L33.3388 18.9106" stroke="#7C6B59" stroke-width="0.5" stroke-miterlimit="10" stroke-linejoin="round"/>
<path d="M27.5963 9.61505L27.9249 11.7348L29.3519 10.4317" stroke="#7C6B59" stroke-width="0.5" stroke-miterlimit="10" stroke-linejoin="round"/>
<path d="M9.53845 9.68456L10.3168 11.6566L11.4152 10.0147" stroke="#7C6B59" stroke-width="0.5" stroke-miterlimit="10" stroke-linejoin="round"/>
<path d="M5.89746 24.0796L7.15148 25.7302L7.78281 23.8103" stroke="#7C6B59" stroke-width="0.5" stroke-miterlimit="10" stroke-linejoin="round"/>
<path d="M5.0672 14.4453L6.84012 15.3401L6.66715 13.3072" stroke="#7C6B59" stroke-width="0.5" stroke-miterlimit="10" stroke-linejoin="round"/>
<path d="M8.5871 20.2311L9.6422 22.0467L10.4897 20.2311" stroke="#7C6B59" stroke-width="0.5" stroke-miterlimit="10" stroke-linejoin="round"/>
<path d="M29.2913 24.7746L30.3378 26.5816L31.194 24.7746" stroke="#7C6B59" stroke-width="0.5" stroke-miterlimit="10" stroke-linejoin="round"/>
<path d="M9.12329 15.036L10.1697 16.8517L11.0259 15.036" stroke="#7C6B59" stroke-width="0.5" stroke-miterlimit="10" stroke-linejoin="round"/>
<path d="M17.0452 9.76274L18.0917 11.5784L18.9479 9.76274" stroke="#7C6B59" stroke-width="0.5" stroke-miterlimit="10" stroke-linejoin="round"/>
<path d="M19.8992 14.3236L20.9456 16.1393L21.8018 14.3236" stroke="#7C6B59" stroke-width="0.5" stroke-miterlimit="10" stroke-linejoin="round"/>
<path d="M26.4806 22.9589L27.527 24.7746L28.3832 22.9589" stroke="#7C6B59" stroke-width="0.5" stroke-miterlimit="10" stroke-linejoin="round"/>
<path d="M19.4322 21.1433L20.4873 22.9589L21.3348 21.1433" stroke="#7C6B59" stroke-width="0.5" stroke-miterlimit="10" stroke-linejoin="round"/>
<path d="M15.2723 23.8624L16.3274 25.6781L17.175 23.8624" stroke="#7C6B59" stroke-width="0.5" stroke-miterlimit="10" stroke-linejoin="round"/>
<path d="M13.4994 17.425L14.5545 19.232L15.402 17.425" stroke="#7C6B59" stroke-width="0.5" stroke-miterlimit="10" stroke-linejoin="round"/>
<path d="M7.24664 3.97693C7.24664 2.09176 10.6541 0.250031 10.6541 0.250031C12.9027 3.67287 11.3114 5.80997 11.3114 5.80997C10.412 7.3129 7.88662 8.54651 7.88662 8.54651L7.24664 3.97693Z" fill="#F8B46A" stroke="#7C6A59" stroke-width="0.5" stroke-miterlimit="10" stroke-linejoin="round"/>
<path d="M5.43044 4.40262C3.56239 3.47307 0.250061 5.01942 0.250061 5.01942C1.33976 8.9722 3.99481 9.16332 3.99481 9.16332C5.94934 9.45869 8.29306 8.36408 8.29306 8.36408L5.43044 4.40262Z" fill="#DD9341" stroke="#7C6A59" stroke-width="0.5" stroke-miterlimit="10" stroke-linejoin="round"/>
<path d="M8.09416 8.45094C5.92341 8.04264 4.42724 6.02716 4.42724 6.02716C2.42947 3.42962 4.52238 0.588837 4.52238 0.588837C4.52238 0.588837 8.02497 0.858146 8.6736 4.08118C8.6736 4.08118 9.20115 6.53971 8.09416 8.45094Z" fill="#F7AA4A" stroke="#7C6A59" stroke-width="0.5" stroke-miterlimit="10" stroke-linejoin="round"/>
</svg>
