<svg width="36" height="56" viewBox="0 0 36 56" fill="none" xmlns="http://www.w3.org/2000/svg">
<path d="M25.1589 35.4451L35.2501 18.9853C35.2501 18.9853 22.9509 31.4732 20.7429 35.4451H25.1589Z" fill="#AECD61" stroke="#7C6A59" stroke-width="0.5" stroke-miterlimit="10" stroke-linecap="round" stroke-linejoin="round"/>
<path d="M30.8341 6.26576C30.8341 6.26576 29.2558 28.4007 24.2102 36.5761H21.3726C21.3726 36.5761 30.3597 9.44736 30.8341 6.26576Z" fill="#97C456" stroke="#7C6B59" stroke-width="0.5" stroke-miterlimit="10" stroke-linejoin="round"/>
<path d="M23.8996 0.250032C23.8996 0.250032 17.2757 13.0786 16.0164 29.1978H21.3811C21.3725 29.1978 22.3212 2.75034 23.8996 0.250032Z" fill="#799946" stroke="#7C6A59" stroke-width="0.5" stroke-miterlimit="10" stroke-linecap="round" stroke-linejoin="round"/>
<path d="M23.8997 13.8757C23.8997 13.8757 21.2173 33.0606 22.9509 37.3732L17.9053 36.5761C17.9053 36.5761 19.0093 18.7537 23.8997 13.8757Z" fill="#AECD61" stroke="#7C6A59" stroke-width="0.5" stroke-miterlimit="10" stroke-linecap="round" stroke-linejoin="round"/>
<path d="M16.0164 6.26576C16.0164 6.26576 13.0236 33.0606 15.3868 37.3732L19.0093 38.0544C19.0093 38.0544 16.3269 7.62833 16.0164 6.26576Z" fill="#97C456" stroke="#7C6B59" stroke-width="0.5" stroke-miterlimit="10" stroke-linejoin="round"/>
<path d="M8.44373 16.1444L15.3868 40.7796H19.958L8.44373 16.1444Z" fill="#97C456" stroke="#7C6B59" stroke-width="0.5" stroke-miterlimit="10" stroke-linejoin="round"/>
<path d="M0.250061 16.1444C0.250061 16.1444 6.39964 31.5823 12.5492 37.3732L16.0164 36.5761C16.0164 36.5761 1.8198 20.1163 0.250061 16.1444Z" fill="#AECD61" stroke="#7C6A59" stroke-width="0.5" stroke-miterlimit="10" stroke-linecap="round" stroke-linejoin="round"/>
<path d="M17.75 55.25H27.5221L31.5413 38.8038H17.75H3.95013L7.97798 55.25H17.75Z" fill="#E09B52" stroke="#7C6B59" stroke-width="0.5" stroke-miterlimit="10" stroke-linejoin="round"/>
<path d="M17.7501 38.8038H34.1288V33.5035H17.7501H1.36267V38.8038H17.7501Z" fill="#E09B52" stroke="#7C6B59" stroke-width="0.5" stroke-miterlimit="10" stroke-linejoin="round"/>
<path d="M4.31244 39.015H7.42604L11.7816 55.0388H8.19366L4.31244 39.015Z" fill="#B0733A"/>
<path d="M31.3257 39.0082H30.4201L26.3491 55.0252H27.3065L31.3257 39.0082Z" fill="#F7B980"/>
<path d="M1.67316 33.701H4.89026L6.17537 38.6063H1.67316V33.701Z" fill="#B0733A"/>
<path d="M33.8184 33.701H32.5764L31.3257 38.6063H33.8184V33.701Z" fill="#F7B980"/>
</svg>
