<svg width="36" height="56" viewBox="0 0 36 56" fill="none" xmlns="http://www.w3.org/2000/svg">
<path d="M19.1128 15.479C19.1128 15.479 16.0423 26.5312 17.3882 33.7636" stroke="#7C6A59" stroke-width="0.5" stroke-miterlimit="10"/>
<path d="M22.6229 12.7616C25.9978 10.4936 23.2316 8.93475 23.2316 8.93475C21.0336 7.48126 20.2287 11.0132 20.2287 11.0132L20.3031 10.2338C20.3031 10.2338 20.1746 6.47013 17.4828 7.30572C17.4828 7.30572 14.5273 8.22556 17.5708 11.3643C13.6548 9.68608 13.9051 13.0284 13.9051 13.0284C13.9862 15.6194 17.5505 14.0676 17.5505 14.0676C17.5505 14.0676 14.0606 15.0577 15.3118 17.2344C15.3118 17.2344 16.8336 20.0993 18.9911 16.5744C18.6529 20.7383 21.5341 19.4182 21.5341 19.4182C24.1447 18.3368 21.6017 15.493 21.6017 15.493C21.6017 15.493 24.3611 18.1051 25.3824 15.3877C25.3824 15.3807 26.6268 12.3754 22.6229 12.7616Z" fill="#B85D70" stroke="#7C6A59" stroke-width="0.5" stroke-miterlimit="10" stroke-linecap="round" stroke-linejoin="round"/>
<path d="M19.62 14.6083C20.3036 14.6083 20.8577 14.033 20.8577 13.3233C20.8577 12.6136 20.3036 12.0383 19.62 12.0383C18.9365 12.0383 18.3823 12.6136 18.3823 13.3233C18.3823 14.033 18.9365 14.6083 19.62 14.6083Z" fill="#F28E25" stroke="#7C6A59" stroke-width="0.5" stroke-miterlimit="10"/>
<path d="M27.2152 8.33088C27.2152 8.33088 25.565 24.6213 23.0355 33.7635" stroke="#7C6A59" stroke-width="0.5" stroke-miterlimit="10"/>
<path d="M30.6239 5.2624C33.7147 2.59415 30.7862 1.38641 30.7862 1.38641C28.4394 0.213783 28.0403 3.81592 28.0403 3.81592L28.0268 3.03651C28.0268 3.03651 27.4722 -0.684997 24.8886 0.473587C24.8886 0.473587 22.0616 1.75154 25.4432 4.49703C21.365 3.31036 21.9872 6.59653 21.9872 6.59653C22.3659 9.15945 25.7273 7.17933 25.7273 7.17933C25.7273 7.17933 22.3795 8.59069 23.8674 10.5989C23.8674 10.5989 25.707 13.2531 27.4452 9.48947C27.5804 13.6604 30.2925 11.9962 30.2925 11.9962C32.7611 10.6059 29.9138 8.09215 29.9138 8.09215C29.9138 8.09215 32.9572 10.3461 33.6539 7.52339C33.6674 7.51637 34.5534 4.38468 30.6239 5.2624Z" fill="#D97C93" stroke="#7C6A59" stroke-width="0.5" stroke-miterlimit="10" stroke-linecap="round" stroke-linejoin="round"/>
<path d="M27.7089 7.47423C28.3924 7.47423 28.9466 6.89893 28.9466 6.18926C28.9466 5.47958 28.3924 4.90428 27.7089 4.90428C27.0253 4.90428 26.4712 5.47958 26.4712 6.18926C26.4712 6.89893 27.0253 7.47423 27.7089 7.47423Z" fill="#F5A45B" stroke="#7C6A59" stroke-width="0.5" stroke-miterlimit="10"/>
<path d="M17.4693 29.9859C17.4693 29.9859 14.5746 24.9794 22.5012 23.7646C22.8056 32.0783 17.4693 29.9859 17.4693 29.9859Z" fill="#96C456" stroke="#7C6A59" stroke-width="0.5" stroke-miterlimit="10" stroke-linecap="round" stroke-linejoin="round"/>
<path d="M9.91479 9.15944C9.91479 9.15944 11.565 25.4498 14.0945 34.5921" stroke="#7C6A59" stroke-width="0.5" stroke-miterlimit="10"/>
<path d="M25.281 23.9051C25.281 23.9051 24.2191 15.6545 35.25 18.716C31.1312 29.7752 25.281 23.9051 25.281 23.9051Z" fill="#96C456" stroke="#7C6A59" stroke-width="0.5" stroke-miterlimit="10" stroke-linecap="round" stroke-linejoin="round"/>
<path d="M25.7476 23.7506L31.4693 20.9138" stroke="#7C6A59" stroke-width="0.5" stroke-miterlimit="10" stroke-linecap="round" stroke-linejoin="round"/>
<path d="M29.907 23.7365C29.6432 23.6523 27.6345 22.8167 27.6345 22.8167L28.5273 20.4995" stroke="#7C6A59" stroke-width="0.5" stroke-miterlimit="10" stroke-linecap="round" stroke-linejoin="round"/>
<path d="M31.4896 22.5218L29.6703 21.8126L30.1031 19.9799" stroke="#7C6A59" stroke-width="0.5" stroke-miterlimit="10" stroke-linecap="round" stroke-linejoin="round"/>
<path d="M6.49923 6.09095C3.40841 3.4227 6.33691 2.21496 6.33691 2.21496C8.68377 1.04234 9.08281 4.64448 9.08281 4.64448L9.09633 3.86507C9.09633 3.86507 9.65092 0.143555 12.2345 1.30214C12.2345 1.30214 15.0616 2.58009 11.6799 5.32558C15.7582 4.13891 15.1359 7.42508 15.1359 7.42508C14.7572 9.988 11.3958 8.00788 11.3958 8.00788C11.3958 8.00788 14.7437 9.41925 13.2558 11.4275C13.2558 11.4275 11.4161 14.0817 9.67797 10.318C9.54271 14.4889 6.83063 12.8248 6.83063 12.8248C4.36203 11.4345 7.20938 8.9207 7.20938 8.9207C7.20938 8.9207 4.1659 11.1747 3.46928 8.35194C3.46252 8.35194 2.56976 5.21324 6.49923 6.09095Z" fill="#DB5B7C" stroke="#7C6A59" stroke-width="0.5" stroke-miterlimit="10" stroke-linecap="round" stroke-linejoin="round"/>
<path d="M9.41419 8.3028C10.0977 8.3028 10.6519 7.7275 10.6519 7.01782C10.6519 6.30815 10.0977 5.73285 9.41419 5.73285C8.73064 5.73285 8.17651 6.30815 8.17651 7.01782C8.17651 7.7275 8.73064 8.3028 9.41419 8.3028Z" fill="#F3A157" stroke="#7C6A59" stroke-width="0.5" stroke-miterlimit="10"/>
<path d="M11.1524 21.8968C11.1524 21.8968 12.3157 12.8739 0.25 16.2233C4.75435 28.3217 11.1524 21.8968 11.1524 21.8968Z" fill="#96C456" stroke="#7C6A59" stroke-width="0.5" stroke-miterlimit="10" stroke-linecap="round" stroke-linejoin="round"/>
<path d="M10.6451 21.7354L4.38232 18.6318" stroke="#7C6A59" stroke-width="0.5" stroke-miterlimit="10" stroke-linecap="round" stroke-linejoin="round"/>
<path d="M6.09351 21.7143C6.37756 21.623 8.57563 20.7032 8.57563 20.7032L7.59495 18.1683" stroke="#7C6A59" stroke-width="0.5" stroke-miterlimit="10" stroke-linecap="round" stroke-linejoin="round"/>
<path d="M4.36206 20.3872L6.35723 19.6078L5.8838 17.6066" stroke="#7C6A59" stroke-width="0.5" stroke-miterlimit="10" stroke-linecap="round" stroke-linejoin="round"/>
<path d="M17.7534 55.25H25.3959L28.5409 38.3417H17.7534H6.95923L10.1042 55.25H17.7534Z" fill="#E09B52" stroke="#7C6B59" stroke-width="0.5" stroke-miterlimit="10" stroke-linejoin="round"/>
<path d="M17.7534 38.3417H30.5631V32.8929H17.7534H4.93701V38.3417H17.7534Z" fill="#E09B52" stroke="#7C6B59" stroke-width="0.5" stroke-miterlimit="10" stroke-linejoin="round"/>
<path d="M7.24329 38.5594H9.67807L13.0868 55.0324H10.2732L7.24329 38.5594Z" fill="#B0733A"/>
<path d="M28.3717 38.5524H27.6616L24.4761 55.0253H25.2268L28.3717 38.5524Z" fill="#F7B980"/>
<path d="M5.18042 33.0965H7.6896L8.70409 38.1451H5.18042V33.0965Z" fill="#B0733A"/>
<path d="M30.3263 33.0965H29.3524L28.3717 38.1451H30.3263V33.0965Z" fill="#F7B980"/>
<path d="M17.7601 29.7542L20.6886 26.2714" stroke="#7C6A59" stroke-width="0.5" stroke-miterlimit="10" stroke-linecap="round" stroke-linejoin="round"/>
<path d="M20.4384 28.5394C20.249 28.5605 18.7273 28.6026 18.7273 28.6026L18.6799 26.8542" stroke="#7C6A59" stroke-width="0.5" stroke-miterlimit="10" stroke-linecap="round" stroke-linejoin="round"/>
<path d="M21.135 27.2966L19.7689 27.3668L19.5592 26.0607" stroke="#7C6A59" stroke-width="0.5" stroke-miterlimit="10" stroke-linecap="round" stroke-linejoin="round"/>
</svg>
